<?xml version="1.0" ?><svg id="Social_media" style="enable-background:new 0 0 90 90;" version="1.1" viewBox="0 0 90 90" xml:space="preserve" xmlns="http://www.w3.org/2000/svg" xmlns:xlink="http://www.w3.org/1999/xlink"><style type="text/css">
	.st0{fill:none;}
	.st1{fill:#FFFFFF;}
</style><g><path class="st0" d="M62,77c0.9,0,1.8-0.1,2.6-0.2c-0.1-0.3-0.2-0.6-0.2-0.9C63.6,76.3,62.8,76.7,62,77z"/><path class="st0" d="M50.6,38.9c0.3-0.2,0.5-0.3,0.8-0.5c0,0,0,0,0.1-0.1c-0.3,0.1-0.7,0.2-1,0.3C50.5,38.7,50.5,38.8,50.6,38.9   C50.6,38.9,50.6,38.9,50.6,38.9z"/><path class="st0" d="M18.6,74.6c0.5,0.3,1.1,0.6,1.7,0.8c-0.1-0.2-0.2-0.4-0.3-0.6C19.6,74.8,19.1,74.7,18.6,74.6z"/><path class="st0" d="M46.2,13.8c0.3-0.2,0.6-0.3,0.9-0.4c-0.5,0-1,0-1.5,0c-0.1,0-0.1,0-0.2,0c0.2,0.1,0.4,0.2,0.5,0.3   C46.1,13.8,46.1,13.8,46.2,13.8z"/><path class="st0" d="M53.8,75.7c-0.6,0.4-1.2,0.7-1.8,1c0.9,0,1.7,0.1,2.6,0.1c-0.2-0.4-0.3-0.8-0.3-1.2   C54.2,75.7,54,75.7,53.8,75.7z"/><path class="st0" d="M46.9,76.3c-0.1,0-0.1,0.1-0.2,0.1c0.4,0,0.8,0,1.3,0.1c-0.1-0.1-0.1-0.2-0.2-0.3   C47.5,76.3,47.2,76.3,46.9,76.3z"/><path class="st0" d="M69.8,66.1c0.1-0.1,0.1-0.2,0.2-0.2C69.9,65.9,69.8,66,69.8,66.1C69.7,66.1,69.7,66.1,69.8,66.1z"/><path class="st0" d="M75.3,22.6c0.1,0,0.1,0,0.2,0c0-0.1-0.1-0.2-0.1-0.3C75.3,22.4,75.3,22.5,75.3,22.6z"/><path class="st0" d="M67.5,14.4c-0.4-0.1-0.9-0.2-1.3-0.3c0.2,0.1,0.4,0.3,0.5,0.4C66.9,14.5,67.2,14.4,67.5,14.4z"/><path class="st0" d="M13.6,25.9c0.2,0,0.4,0,0.6,0.1c0,0,0,0,0,0c0-0.1,0-0.1,0-0.2c0-0.2,0.1-0.3,0.2-0.5c-0.3,0-0.5-0.1-0.8-0.2   C13.6,25.4,13.6,25.7,13.6,25.9z"/><path class="st0" d="M19.8,41c0.1-0.1,0.2-0.2,0.3-0.3c-0.2,0.2-0.5,0.4-0.7,0.5c0,0,0,0.1,0,0.1C19.5,41.2,19.7,41.1,19.8,41z"/><path d="M80.9,32.5c0-7.5-0.6-16.6-7.8-21C68.9,9,63.8,9.1,59,9C52.7,8.7,46.3,8.7,40,8.8c-4.2,0.1-10.4-0.5-15.8,0.5   c-2.4-0.2-4.6,0-7,0.4c-0.3,0.1-0.5,0.1-0.7,0.3c-4.2,1.3-6.8,6.2-7.3,10.9c-1,10.9-0.1,22.3-0.1,33.2c0,8-1.1,18.1,5.8,23.8   c2.6,2.2,5.7,2.6,9,2.7c5.7,0.2,11.5,0.2,17.2,0.3c9.4,0.2,19.4,1.3,28.7-0.3c8.6-1.5,10.9-6.9,10.9-15   C80.9,54.6,80.9,43.6,80.9,32.5z M14.2,25.8c0,0.1,0,0.1,0,0.2c0,0,0,0,0,0c-0.2-0.1-0.4-0.1-0.6-0.1c0-0.3,0-0.5,0.1-0.8   c0.2,0.1,0.5,0.2,0.8,0.2C14.3,25.5,14.2,25.7,14.2,25.8z M67.5,14.4c-0.3,0.1-0.5,0.1-0.8,0.2c-0.2-0.2-0.3-0.3-0.5-0.4   C66.6,14.2,67,14.3,67.5,14.4z M45.7,13.4c0.5,0,1,0,1.5,0c-0.3,0.1-0.6,0.3-0.9,0.4c0,0-0.1-0.1-0.1-0.1c-0.2-0.1-0.3-0.2-0.5-0.3   C45.6,13.4,45.6,13.4,45.7,13.4z M20.1,40.7c-0.1,0.1-0.2,0.2-0.3,0.3c-0.1,0.1-0.3,0.2-0.4,0.4c0,0,0-0.1,0-0.1   C19.6,41,19.8,40.8,20.1,40.7z M18.6,74.6c0.5,0.1,0.9,0.1,1.4,0.1c0.1,0.2,0.2,0.4,0.3,0.6C19.7,75.2,19.2,75,18.6,74.6z    M46.8,76.5c0.1,0,0.1-0.1,0.2-0.1c0.3,0,0.6,0,0.9-0.1c0.1,0.1,0.1,0.2,0.2,0.3C47.6,76.5,47.2,76.5,46.8,76.5z M52,76.7   c0.6-0.3,1.2-0.7,1.8-1c0.2,0,0.4,0,0.5-0.1c0,0.4,0.1,0.8,0.3,1.2C53.8,76.8,52.9,76.8,52,76.7z M62,77c0.8-0.3,1.6-0.6,2.4-1   c0,0.3,0.1,0.6,0.2,0.9C63.8,76.9,62.9,76.9,62,77z M69.1,57.6c-0.3,6.3-3.5,9.4-9.6,10.4c-8.6,1.3-18.2,1.4-26.8,0   c-6.9-1.2-9.8-4.5-10.8-11.4c-1.1-7.8-5.6-35.5,8.6-34.3c8.6-1.3,17.3-1.2,26-0.7C62.7,22,67,24,68,30.4   C69.5,39.1,69.5,48.8,69.1,57.6z M69.8,66.1C69.7,66.1,69.7,66.1,69.8,66.1c0-0.1,0.1-0.2,0.2-0.2C69.9,66,69.8,66,69.8,66.1z    M75.3,22.6c0-0.1,0.1-0.2,0.1-0.3c0,0.1,0.1,0.2,0.1,0.3C75.4,22.7,75.3,22.7,75.3,22.6z"/><path d="M63.4,30.3c-1.6-5.5-10.6-4.4-15.3-4.5c-5.4-0.1-10.7,0-16,0.8c-0.4,0.2-0.9,0.3-1.4,0.2c-0.3,0-0.5,0-0.8-0.1   c-5.8,0.1-4.4,14.4-4.3,17.6c0.2,4.7-0.5,14,3,17.2c3.7,3.4,11.8,2.7,16.4,2.7c4.9,0,10.5,0.2,15.2-1c6.2-1.6,4.3-11.3,4.2-16.3   C64.3,41.7,64.8,35.3,63.4,30.3z M47.9,52c-4.6,2.3-10.2,0.7-12.7-3.9c-2.5-4.6-0.4-10.3,4.2-12.5c0.4-0.2,0.7-0.2,1-0.2   c3.5-1.2,8,0.1,10,3.2c0.3-0.1,0.7-0.2,1-0.3c0,0,0,0-0.1,0.1c-0.3,0.2-0.5,0.3-0.8,0.5C53.1,43.4,52.8,49.5,47.9,52z M58.1,33.2   c0,1.3-1.1,2.2-2.3,2.3c-1.2,0.1-2.3-1.1-2.3-2.3c0-0.1,0-0.2,0-0.2c0-1.3,1.1-2.2,2.3-2.3c1.2-0.1,2.3,1.1,2.3,2.3   C58.1,33,58.1,33.1,58.1,33.2z"/><path d="M44.5,39.8c-0.7-0.1-2.4-0.3-3,0.2c-0.3,0.3-0.7,0.4-1,0.5c-3.3,2.9-1,8.9,4,7.8c3.3-0.7,3.4-3.7,2.4-6.4   C46.5,40.7,45.8,40,44.5,39.8z"/><path class="st1" d="M56.6,21.6c-8.7-0.6-17.4-0.6-26,0.7C16.3,21,20.9,48.7,22,56.6c0.9,6.9,3.8,10.3,10.8,11.4   c8.5,1.4,18.2,1.3,26.8,0c6.2-0.9,9.3-4.1,9.6-10.4c0.4-8.8,0.4-18.5-1.1-27.2C67,24,62.7,22,56.6,21.6z M60.2,63.2   c-4.8,1.2-10.4,1-15.2,1c-4.6,0-12.8,0.7-16.4-2.7c-3.5-3.3-2.9-12.5-3-17.2c-0.1-3.2-1.5-17.5,4.3-17.6c0.2,0.1,0.5,0.1,0.8,0.1   c0.5,0.1,1,0,1.4-0.2c5.3-0.8,10.7-0.9,16-0.8c4.7,0.1,13.7-1.1,15.3,4.5c1.4,5,1,11.4,1.1,16.6C64.6,51.9,66.5,61.6,60.2,63.2z"/><path class="st1" d="M50.6,38.9c0-0.1-0.1-0.1-0.1-0.2c-1.9-3.1-6.5-4.4-10-3.2c-0.3,0-0.7,0.1-1,0.2c-4.6,2.2-6.7,7.9-4.2,12.5   c2.5,4.5,8.1,6.2,12.7,3.9C52.8,49.5,53.1,43.4,50.6,38.9C50.6,38.9,50.6,38.9,50.6,38.9z M44.5,48.3c-5,1.1-7.3-4.9-4-7.8   c0.3-0.1,0.7-0.2,1-0.5c0.6-0.5,2.3-0.3,3-0.2c1.3,0.2,2,0.9,2.5,2.1C47.9,44.6,47.8,47.6,44.5,48.3z"/><path class="st1" d="M55.8,30.7c-1.2,0.1-2.3,1-2.3,2.3c0,0.1,0,0.2,0,0.2c0,1.2,1.1,2.4,2.3,2.3c1.2-0.1,2.3-1,2.3-2.3   c0-0.1,0-0.2,0-0.2C58.1,31.8,57.1,30.6,55.8,30.7z"/></g></svg>